<!-- icon666.com - MILLIONS vector ICONS FREE --><svg id="svg8" viewBox="0 0 2.5567667 2.5567669" xmlns="http://www.w3.org/2000/svg" xmlns:dc="http://purl.org/dc/elements/1.1/" xmlns:cc="http://creativecommons.org/ns#" xmlns:rdf="http://www.w3.org/1999/02/22-rdf-syntax-ns#" xmlns:svg="http://www.w3.org/2000/svg"><g id="layer18" transform="translate(-.529 -.529)"><path id="LINE-1" d="m.92526669.52890791c-.21762005-.00000265-.39635535.18080302-.39635826.39842545v3.17396544c.00000291.2176198.17873821.3963591.39635826.3963591h4.76405011c.217619-.0000027.3963554-.1787393.3963583-.3963591v-3.17396544c-.0000029-.21761979-.1787393-.39842545-.3963583-.39842545zm0 .26561521h4.76405011c.07463.00000264.1328074.0581766.1328084.13281024v3.17396544c-.000001.074628-.058176.1328076-.1328084.1328076h-4.76405011c-.07463 0-.13074147-.058174-.13074147-.1328076v-3.17396544c0-.074631.0561123-.13281024.13074147-.13281024zm1.23041541.57209768-.1710486.1710111-.1705322-.1710505c-.1479292-.1320561-.3047865.0755811-.1875856.1875869l.1710492.1710478-.1710492.1710479c-.135753.1249528.063006.3231667.1875856.187071l.1705322-.1710505.1710489.1710505c.1246186.1147042.3019471-.0621378.1875856-.187071l-.1710492-.1710479.1710492-.1710478c.1323514-.1562374-.081132-.3023076-.1875859-.1875475zm2.6468671 0-.1720824.1720429-.1720826-.1720823c-.1665503-.1374083-.300585.0897315-.1855182.1875869l.1710489.1710478-.1710489.1710479c-.1495912.1229814.0612942.335632.1855182.187071l.1720826-.172085.1720826.172085c.1242239.1485617.3351102-.0640897.1855181-.187071l-.1710488-.1710479.1710488-.1710478c.1301779-.1552604-.0789945-.2996127-.1855183-.1875475zm-3.3481135 1.8149024c-.0718525.0008442-.1298952.0588853-.1307414.1307378v.5291667c-.0002477.072635.058109.1318876.1307391.1327468h.7953001c.073463.0002801.1330881-.059344.1328084-.1328077v-.396359h2.7770915c.1921877.017262.1921877-.2808112 0-.2635488zm.132806.2634846h.5296834v.2656178h-.5296834zm1.1916585 1.5818167c-.4045636.0120961-.6557226.3611676-.6619751.6619743v.2640674c-.0002797.073463.059345.1330877.1328084.1328076h2.1171834c.072655-.000858.1310226-.060148.1307415-.1328076v-.2640674c-.0191754-.3881073-.3520453-.6509995-.6599082-.6619743zm0 .2656152h1.05885c.2183844.00404.386424.2091305.3963583.3963591v.1328076h-1.8515666c-.0421913-.3567696.2205724-.5219877.3963583-.5291667z" font-variant-ligatures="normal" font-variant-position="normal" font-variant-caps="normal" font-variant-numeric="normal" font-variant-alternates="normal" font-feature-settings="normal" text-indent="0" text-align="start" text-decoration-line="none" text-decoration-style="solid" text-decoration-color="rgb(0,0,0)" text-transform="none" text-orientation="mixed" white-space="normal" shape-padding="0" isolation="auto" mix-blend-mode="normal" solid-color="rgb(0,0,0)" solid-opacity="1" vector-effect="none" paint-order="markers fill stroke" fill="#000000" style="fill: rgb(158, 255, 79);"></path></g></svg>
